<svg width="1260" height="983" viewBox="0 0 1260 983" fill="none" xmlns="http://www.w3.org/2000/svg">
<g id="envelope">
<g id="back">
<path id="background" d="M76.3794 482.553C73.3656 463.569 85.8164 446.413 104.692 443.54L1026.77 303.184C1046.65 300.158 1066.07 314.062 1069.81 333.99L1142.65 722.602C1146.37 742.419 1133.12 760.505 1113.21 762.787L174.784 870.393C154.886 872.675 136.029 858.286 132.875 838.415L76.3794 482.553Z" fill="#B8B7B7"/>
<path id="flap" d="M481.076 27.2367C490.833 19.0184 504.769 17.0295 517.392 22.0522L1064.96 239.92C1099.68 253.733 1097.27 302.461 1061.59 308.132L150.31 452.984L69.7035 463.933C33.6794 468.825 10.6075 423.493 37.5657 400.787L481.076 27.2367Z" fill="#D9D9D9"/>
</g>
<g id="letter">
<path id="letter-background" d="M126.408 265.499C125.078 259.006 129.33 253.065 135.904 252.229L921.517 152.293C928.091 151.456 934.499 156.042 935.829 162.534L1030.5 624.675C1031.83 631.168 1027.57 637.109 1021 637.945L235.387 737.881C228.813 738.718 222.405 734.132 221.075 727.64L126.408 265.499Z" fill="white"/>
</g>
<g id="front">
<path id="upper" d="M1088.43 256.593C1082.79 237.317 1055.44 237.451 1049.99 256.781L995.618 449.599C994.162 454.762 990.692 459.124 985.989 461.705L818.335 553.684C816.148 554.884 813.755 555.665 811.28 555.985L356.007 614.853C353.371 615.194 350.694 615.006 348.131 614.3L142.897 557.775C137.623 556.322 133.174 552.773 130.587 547.954L57.7445 412.29C47.0284 392.332 16.6185 402.76 20.4052 425.094L111.704 963.576C113.49 974.108 123.237 981.378 133.841 980.086L1236.6 845.77C1248.86 844.277 1256.85 832.148 1253.38 820.3L1088.43 256.593Z" fill="#F2F2F2"/>
</g>
</g>
</svg>
