<svg width="145" height="73" viewBox="0 0 145 73" fill="none" xmlns="http://www.w3.org/2000/svg">
<path d="M25.3798 43.32C25.4198 43.28 25.4798 43.24 25.5598 43.2C25.5998 43.2 25.6198 43.2 25.6198 43.2C25.6598 43.2 25.6998 43.2 25.7398 43.2C25.7798 43.2 25.8198 43.2 25.8598 43.2C25.8598 43.2 25.8398 43.2 25.7998 43.2C25.7598 43.24 25.7398 43.26 25.7398 43.26C25.6998 43.26 25.5798 43.28 25.3798 43.32ZM25.3798 43.32C25.0998 43.48 24.6598 43.7 24.0598 43.98C24.4198 43.62 24.8598 43.4 25.3798 43.32ZM45.6598 37.68C44.8998 38.12 43.6798 38.36 41.9998 38.4C42.7998 37.92 44.0198 37.68 45.6598 37.68ZM23.6398 44.28C23.6398 44.24 23.6598 44.2 23.6998 44.16C23.7398 44.16 23.7598 44.16 23.7598 44.16C23.9598 44.04 24.0598 43.98 24.0598 43.98C23.9398 44.14 23.8598 44.22 23.8198 44.22C23.8198 44.22 23.7998 44.22 23.7598 44.22C23.6798 44.26 23.6398 44.28 23.6398 44.28ZM21.5398 45.06C21.5398 45.06 21.5598 45.04 21.5998 45C21.6398 45 21.6798 44.98 21.7198 44.94C21.7598 44.94 21.7998 44.94 21.8398 44.94C21.7998 44.98 21.7798 45 21.7798 45C21.7398 45.04 21.7198 45.06 21.7198 45.06C21.6798 45.06 21.6398 45.06 21.5998 45.06C21.5598 45.06 21.5398 45.06 21.5398 45.06ZM21.5398 45.06C20.7798 45.74 19.5598 46 17.8798 45.84C18.9998 45.32 20.2198 45.06 21.5398 45.06ZM11.9398 49.02C11.9398 49.02 11.7598 49.1 11.3998 49.26C11.0398 49.42 10.7798 49.56 10.6198 49.68C10.8998 49.32 11.3398 49.1 11.9398 49.02ZM23.6398 44.28C23.2398 44.68 22.6398 44.9 21.8398 44.94C22.2798 44.5 22.8798 44.28 23.6398 44.28ZM39.4198 36.18C39.1798 36.98 39.1798 37.52 39.4198 37.8C39.6598 38.08 40.2998 38.28 41.3398 38.4C41.3798 38.44 41.4998 38.46 41.6998 38.46C41.5798 38.7 41.3998 38.92 41.1598 39.12C40.9598 39.32 40.7598 39.46 40.5598 39.54C40.3998 39.66 40.1398 39.78 39.7798 39.9C39.4598 40.06 39.2398 40.18 39.1198 40.26C37.9998 40.78 37.1798 41.68 36.6598 42.96C34.7398 47.56 32.4398 51.14 29.7598 53.7C27.2798 56.1 24.4598 57.94 21.2998 59.22C19.8598 59.78 17.8398 60.48 15.2398 61.32C13.7598 61.8 12.0798 62.04 10.1998 62.04C8.27977 62.08 6.53977 62 4.97977 61.8C4.29976 61.72 3.29976 61.38 1.97976 60.78C1.17976 60.42 0.659764 59.82 0.419765 58.98C0.139765 58.18 0.239765 57.42 0.719765 56.7C2.55976 53.94 4.65976 52.08 7.01976 51.12C7.09976 51.12 7.17976 51.1 7.25976 51.06C7.45976 50.94 7.69976 50.92 7.97976 51C7.85976 51.04 7.67976 51.1 7.43976 51.18C7.19976 51.3 7.01976 51.4 6.89976 51.48C6.85976 51.56 6.67976 51.76 6.35977 52.08C6.15976 52.36 5.77976 52.74 5.21976 53.22C4.61976 53.7 4.19976 54.1 3.95976 54.42C3.43976 55.06 2.79976 56.08 2.03976 57.48C1.79976 57.92 1.75976 58.36 1.91976 58.8C2.03976 59.28 2.29976 59.66 2.69976 59.94C3.37977 60.34 3.91977 60.58 4.31976 60.66C6.03976 60.98 7.33976 61.14 8.21976 61.14C9.45976 61.14 10.6798 61.08 11.8798 60.96C12.2398 60.96 13.0798 60.82 14.3998 60.54C18.0398 59.86 21.3598 58.58 24.3598 56.7C25.9998 55.7 27.4598 54.6 28.7398 53.4C30.0598 52.24 31.0998 50.98 31.8598 49.62C31.8998 49.58 31.9998 49.42 32.1598 49.14C32.2798 48.94 32.4798 48.58 32.7598 48.06C33.0798 47.58 33.3198 47.18 33.4798 46.86C33.6398 46.58 33.8198 46.22 34.0198 45.78C34.2198 45.34 34.3798 44.94 34.4998 44.58C34.6198 44.26 34.8998 43.6 35.3398 42.6C35.4198 42.36 35.3998 42.12 35.2798 41.88C35.1998 41.64 35.0198 41.46 34.7398 41.34C34.4998 41.22 34.2398 41.2 33.9598 41.28C32.3198 41.64 31.0998 41.98 30.2998 42.3C28.5398 42.9 27.0598 43.2 25.8598 43.2C26.4598 42.76 27.1398 42.38 27.8998 42.06C28.6998 41.78 29.5798 41.5 30.5398 41.22C31.4998 40.94 32.2398 40.7 32.7598 40.5C32.9998 40.42 33.4198 40.28 34.0198 40.08C34.6598 39.88 35.1398 39.72 35.4598 39.6C36.1398 39.24 36.5998 38.84 36.8398 38.4C38.1998 35.56 39.0398 33.04 39.3598 30.84C39.3998 30.72 39.3198 30.6 39.1198 30.48C38.9198 30.36 38.7798 30.34 38.6998 30.42C38.2598 30.74 37.5798 31.32 36.6598 32.16C35.7798 33 34.9598 33.66 34.1998 34.14C33.4398 34.58 32.5998 34.82 31.6798 34.86C30.8798 34.94 30.2798 34.76 29.8798 34.32C29.6798 34.12 29.4998 33.8 29.3398 33.36C29.2598 33.2 29.1998 33.02 29.1598 32.82C28.7198 31.14 28.8798 29.48 29.6398 27.84C30.3998 26.2 31.5198 24.76 32.9998 23.52C35.6798 21.36 38.9998 20.48 42.9598 20.88C43.0398 20.88 43.1198 20.92 43.1998 21C43.3598 21.2 43.3198 21.38 43.0798 21.54C42.5198 22.02 42.2398 22.26 42.2398 22.26C40.7198 22.46 39.6998 22.64 39.1798 22.8C38.6998 22.92 37.8598 23.32 36.6598 24C32.8598 26.08 31.0598 28.54 31.2598 31.38C31.2998 31.9 31.4398 32.26 31.6798 32.46C32.0798 32.9 32.7198 32.9 33.5998 32.46C34.1598 32.22 34.6798 31.9 35.1598 31.5C35.6798 31.06 36.2198 30.56 36.7798 30C37.3398 29.4 37.7998 28.96 38.1598 28.68C39.7998 27.24 41.1398 25.64 42.1798 23.88C42.4598 23.44 42.7798 23.08 43.1398 22.8C43.3798 22.64 43.6598 22.6 43.9798 22.68C44.3798 22.8 44.5998 23 44.6398 23.28C44.7198 24.12 44.6798 24.72 44.5198 25.08C44.1598 26.04 43.5998 27.16 42.8398 28.44C41.3998 30.96 40.2598 33.54 39.4198 36.18ZM41.6998 38.46V38.4C41.7398 38.4 41.7598 38.4 41.7598 38.4C41.7598 38.4 41.7798 38.4 41.8198 38.4C41.8998 38.4 41.9598 38.4 41.9998 38.4C41.9598 38.4 41.9198 38.4 41.8798 38.4C41.8398 38.44 41.8198 38.46 41.8198 38.46C41.8198 38.46 41.7998 38.46 41.7598 38.46C41.7198 38.46 41.6998 38.46 41.6998 38.46ZM45.6598 37.68C45.6998 37.68 45.7398 37.66 45.7798 37.62C45.8198 37.62 45.8398 37.62 45.8398 37.62C46.0398 37.58 46.1798 37.56 46.2598 37.56C46.2198 37.56 46.1598 37.58 46.0798 37.62C45.9998 37.66 45.9398 37.68 45.8998 37.68H45.6598ZM17.6398 45.96V45.9L17.6998 45.84C17.6998 45.84 17.7198 45.84 17.7598 45.84C17.7998 45.84 17.8398 45.84 17.8798 45.84C17.8798 45.84 17.8598 45.84 17.8198 45.84C17.7798 45.88 17.7598 45.9 17.7598 45.9C17.7598 45.9 17.7398 45.9 17.6998 45.9C17.6598 45.94 17.6398 45.96 17.6398 45.96ZM71.8798 33.66C72.1198 33.66 72.3198 33.78 72.4798 34.02C72.6798 34.22 72.7398 34.42 72.6598 34.62C72.2998 35.18 71.9798 35.46 71.6998 35.46C70.4198 35.46 68.2198 35.42 65.0998 35.34C64.3398 35.22 63.4598 35.2 62.4598 35.28C61.4998 35.32 60.9398 35.36 60.7798 35.4C60.6598 35.4 60.1198 35.48 59.1598 35.64C58.2398 35.76 57.3998 35.88 56.6398 36C55.7598 36.12 52.2998 36.64 46.2598 37.56C49.6598 36.12 53.0398 35.28 56.3998 35.04C57.1198 34.96 57.7598 34.94 58.3198 34.98C58.9198 35.02 59.5798 35 60.2998 34.92C60.6198 34.88 60.9998 34.84 61.4398 34.8C61.8798 34.72 62.3398 34.66 62.8198 34.62C65.2598 34.54 67.6598 34.28 70.0198 33.84C70.1798 33.8 70.7998 33.74 71.8798 33.66ZM17.6398 45.96C17.1998 47.08 16.0998 47.72 14.3398 47.88C14.5798 47.56 14.8798 47.3 15.2398 47.1C15.5998 46.9 16.0398 46.68 16.5598 46.44C17.0798 46.2 17.4398 46.04 17.6398 45.96ZM8.45977 50.76C8.93976 50.52 9.55976 50.2 10.3198 49.8C10.3598 49.76 10.4198 49.72 10.4998 49.68C10.5398 49.68 10.5798 49.68 10.6198 49.68L10.5598 49.74L10.4398 49.86C10.1998 49.98 9.87976 50.14 9.47976 50.34C9.07976 50.58 8.77977 50.76 8.57977 50.88C8.53976 50.84 8.51976 50.82 8.51976 50.82V50.88C8.47976 50.88 8.37977 50.88 8.21976 50.88L8.45977 50.76ZM12.2398 48.84C12.3998 48.76 12.5998 48.66 12.8398 48.54C13.0798 48.42 13.3198 48.3 13.5598 48.18C13.7598 48.06 13.9598 47.96 14.1598 47.88C14.1598 47.88 14.2198 47.88 14.3398 47.88C14.3398 47.88 14.3198 47.88 14.2798 47.88C14.2398 47.92 14.2198 47.94 14.2198 47.94C14.0198 48.06 13.7198 48.22 13.3198 48.42C12.8798 48.66 12.5398 48.82 12.2998 48.9C12.2198 48.94 12.0998 48.98 11.9398 49.02C11.9798 48.98 12.0398 48.94 12.1198 48.9C12.1598 48.86 12.1998 48.84 12.2398 48.84ZM44.2559 34.5C44.2559 34.42 44.1559 33.86 43.9559 32.82C44.2359 31.46 44.3759 30.74 44.3759 30.66C45.2159 27.78 46.9159 24.72 49.4759 21.48C50.5159 20.2 51.9559 19.34 53.7959 18.9C54.1959 18.78 54.5959 18.8 54.9959 18.96C55.3959 19.08 55.7559 19.3 56.0759 19.62C56.4359 19.9 56.6759 20.24 56.7959 20.64C57.1559 21.68 57.2759 22.8 57.1559 24C56.7559 27.6 54.9159 31.06 51.6359 34.38C50.7959 35.18 49.7759 35.92 48.5759 36.6C47.6959 37.08 46.8159 37.1 45.9359 36.66C45.0559 36.26 44.4959 35.54 44.2559 34.5ZM53.3159 30.18C54.7959 27.82 55.5359 25.4 55.5359 22.92C55.5759 22.48 55.3559 22.1 54.8759 21.78C54.3959 21.46 53.9559 21.4 53.5559 21.6C52.6759 22 52.1559 22.32 51.9959 22.56C49.5559 25.8 47.8159 28.24 46.7759 29.88C46.4159 30.48 46.1759 31.56 46.0559 33.12C46.0559 33.6 46.1959 34.02 46.4759 34.38C46.7559 34.7 47.0959 34.9 47.4959 34.98C47.8959 35.06 48.2959 35 48.6959 34.8C50.4159 33.84 51.9559 32.3 53.3159 30.18ZM57.971 34.5C57.971 34.42 57.871 33.86 57.671 32.82C57.951 31.46 58.091 30.74 58.091 30.66C58.931 27.78 60.631 24.72 63.191 21.48C64.231 20.2 65.671 19.34 67.511 18.9C67.911 18.78 68.311 18.8 68.711 18.96C69.111 19.08 69.471 19.3 69.791 19.62C70.151 19.9 70.391 20.24 70.511 20.64C70.871 21.68 70.991 22.8 70.871 24C70.471 27.6 68.631 31.06 65.351 34.38C64.511 35.18 63.491 35.92 62.291 36.6C61.411 37.08 60.531 37.1 59.651 36.66C58.771 36.26 58.211 35.54 57.971 34.5ZM67.031 30.18C68.511 27.82 69.251 25.4 69.251 22.92C69.291 22.48 69.071 22.1 68.591 21.78C68.111 21.46 67.671 21.4 67.271 21.6C66.391 22 65.871 22.32 65.711 22.56C63.271 25.8 61.531 28.24 60.491 29.88C60.131 30.48 59.891 31.56 59.771 33.12C59.771 33.6 59.911 34.02 60.191 34.38C60.471 34.7 60.811 34.9 61.211 34.98C61.611 35.06 62.011 35 62.411 34.8C64.131 33.84 65.671 32.3 67.031 30.18ZM87.0462 30.3C86.8862 30.62 86.7062 31.22 86.5062 32.1C86.4662 32.46 86.4662 32.8 86.5062 33.12C86.5462 33.44 86.6462 33.74 86.8062 34.02C87.0062 34.26 87.2262 34.46 87.4662 34.62C88.0662 34.98 88.8262 34.94 89.7462 34.5C91.8662 33.46 93.7862 32.1 95.5062 30.42C95.6262 30.26 95.7662 30.14 95.9262 30.06C96.0862 29.94 96.2262 29.86 96.3462 29.82C96.5062 29.74 96.6462 29.7 96.7662 29.7C96.8862 29.66 96.9662 29.64 97.0062 29.64C97.0862 29.64 97.1462 29.64 97.1862 29.64C97.2662 29.68 97.2862 29.84 97.2462 30.12C97.2062 30.36 97.1462 30.54 97.0662 30.66C95.5462 32.66 93.5062 34.4 90.9462 35.88C90.2262 36.36 89.6662 36.66 89.2662 36.78C87.3062 37.42 85.7262 37.02 84.5262 35.58C84.4862 35.5 83.9662 34.8 82.9662 33.48C82.6862 33.48 82.3862 33.54 82.0662 33.66C81.7862 33.74 81.5662 33.82 81.4062 33.9C81.2862 33.98 81.0662 34.14 80.7462 34.38C80.4662 34.58 80.3062 34.7 80.2662 34.74C78.3462 36.02 77.2662 36.72 77.0262 36.84C76.2662 37.28 75.5062 37.3 74.7462 36.9C73.9862 36.54 73.5462 35.94 73.4262 35.1C73.0262 31.86 73.4262 29.06 74.6262 26.7C75.3862 25.26 76.0462 24.18 76.6062 23.46C77.6862 22.14 78.7062 20.72 79.6662 19.2C79.8262 18.92 80.0462 18.64 80.3262 18.36C80.6062 18.04 80.8262 17.8 80.9862 17.64C81.1862 17.48 81.4862 17.22 81.8862 16.86C82.2862 16.5 82.5462 16.28 82.6662 16.2C82.9062 15.96 83.2662 15.96 83.7462 16.2C84.2262 16.4 84.4862 16.68 84.5262 17.04C84.5662 18.04 84.6062 19.14 84.6462 20.34C84.6462 21.14 84.6862 23.48 84.7662 27.36C85.6062 26.76 86.2062 26.08 86.5662 25.32C88.8062 20.6 92.6462 13.82 98.0862 4.98004C99.4462 2.78004 100.966 1.18004 102.646 0.180042C102.966 0.0600412 103.246 0.120042 103.486 0.360043C103.726 0.600043 103.746 1.00004 103.546 1.56004C102.786 2.88004 101.366 5.36004 99.2862 9.00004C97.2462 12.64 95.6262 15.48 94.4262 17.52C93.9462 18.32 93.2062 19.54 92.2062 21.18C91.2062 22.78 90.4662 24 89.9862 24.84C89.2262 26.12 88.2462 27.94 87.0462 30.3ZM83.6862 29.58C83.8462 29.38 83.9662 29.18 84.0462 28.98C84.1662 28.78 84.2662 28.52 84.3462 28.2C84.4662 27.84 84.5662 27.6 84.6462 27.48C83.5662 27.24 83.0062 26.64 82.9662 25.68C82.9262 25.2 82.8862 24.54 82.8462 23.7C82.8462 22.82 82.8262 22.22 82.7862 21.9C82.7462 21.06 82.3862 20.64 81.7062 20.64C81.1462 20.92 80.6462 21.28 80.2062 21.72C79.7662 22.16 79.2462 22.78 78.6462 23.58C78.0862 24.38 77.7262 24.88 77.5662 25.08C75.7262 27.36 74.8862 30.32 75.0462 33.96C75.0862 34.24 75.2662 34.48 75.5862 34.68C75.9062 34.88 76.2062 34.92 76.4862 34.8C79.1662 33.72 81.5662 31.98 83.6862 29.58ZM100.009 35.46C100.129 35.74 100.069 36.02 99.8285 36.3C99.6285 36.54 99.3285 36.68 98.9285 36.72C98.8885 36.68 98.8085 36.6 98.6885 36.48C98.5685 36.36 98.4685 36.26 98.3885 36.18C98.3485 36.06 98.3285 35.96 98.3285 35.88C98.3285 35.68 98.3885 35.48 98.5085 35.28C98.6685 35.04 98.8285 34.9 98.9885 34.86C99.1085 34.82 99.2885 34.88 99.5285 35.04C99.7685 35.16 99.9285 35.3 100.009 35.46ZM48.5398 69.62C48.6198 69.62 48.6798 69.62 48.7198 69.62C49.1598 69.62 49.4598 69.84 49.6198 70.28C49.7398 70.64 49.5998 71 49.1998 71.36C49.0398 71.48 48.8798 71.58 48.7198 71.66C48.5998 71.74 48.4198 71.8 48.1798 71.84C47.9798 71.92 47.8198 71.98 47.6998 72.02C47.5798 72.06 47.3798 72.1 47.0998 72.14C46.8598 72.18 46.6798 72.2 46.5598 72.2C45.6798 72.36 44.9198 72.46 44.2798 72.5C43.5598 72.54 42.9198 72.3 42.3598 71.78C41.8398 71.3 41.5598 70.68 41.5198 69.92C41.3598 68.28 41.5998 66.74 42.2398 65.3C42.6398 64.46 43.2598 63.02 44.0998 60.98C44.4198 60.22 44.5798 59.84 44.5798 59.84C44.3398 59.76 43.8398 59.92 43.0798 60.32C40.6398 61.56 38.4598 63.28 36.5398 65.48C34.9798 67.28 33.2198 69.22 31.2598 71.3C30.8198 71.78 30.3798 72.06 29.9398 72.14C29.5398 72.22 29.0798 72.12 28.5598 71.84C28.2798 71.68 28.1198 71.38 28.0798 70.94C28.0798 70.3 28.1598 69.8 28.3198 69.44C29.2398 67.52 29.9198 66.3 30.3598 65.78C31.1998 64.66 32.4998 62.92 34.2598 60.56C36.0598 58.2 37.6798 56.14 39.1198 54.38C40.5598 52.58 41.9998 50.92 43.4398 49.4C44.1598 48.6 45.5398 47.28 47.5798 45.44C47.6198 45.4 48.2198 45.06 49.3798 44.42C49.1798 44.86 48.9398 45.28 48.6598 45.68C48.3798 46.04 48.1398 46.32 47.9398 46.52C47.7798 46.72 47.5198 47 47.1598 47.36C46.7998 47.72 46.5598 47.94 46.4398 48.02C46.1598 48.34 45.6398 48.88 44.8798 49.64C44.1198 50.4 43.5398 50.98 43.1398 51.38C42.6198 51.98 41.7598 53.08 40.5598 54.68C39.1598 56.52 38.2198 57.8 37.7398 58.52C37.5798 58.8 37.3598 59.12 37.0798 59.48C36.7998 59.8 36.5198 60.14 36.2398 60.5C35.9998 60.82 35.7998 61.14 35.6398 61.46C35.4398 61.82 35.2598 62.28 35.0998 62.84C35.0598 62.96 35.0598 63.04 35.0998 63.08C35.1398 63.2 35.2798 63.16 35.5198 62.96C36.1998 62.52 36.9398 62.02 37.7398 61.46C38.6998 60.86 39.9598 60.08 41.5198 59.12C41.6798 59 41.8798 58.88 42.1198 58.76C42.3598 58.6 42.5998 58.46 42.8398 58.34C43.0798 58.18 43.2798 58.04 43.4398 57.92C43.5598 57.84 43.7198 57.74 43.9198 57.62C44.1598 57.46 44.3198 57.36 44.3998 57.32C44.6398 57.16 44.8198 57.04 44.9398 56.96C45.2198 56.8 45.3598 56.72 45.3598 56.72C45.9598 56.32 46.4398 56.08 46.7998 56C47.0798 55.88 47.3398 55.84 47.5798 55.88C47.8998 55.92 48.1398 56.04 48.2998 56.24C48.4998 56.48 48.5798 56.82 48.5398 57.26C48.4998 58.06 48.0998 59.08 47.3398 60.32C47.1798 60.6 46.8998 61.08 46.4998 61.76C46.0998 62.44 45.7798 62.96 45.5398 63.32C44.2198 65.52 43.4598 67.26 43.2598 68.54C43.0998 69.38 43.2598 70.04 43.7398 70.52C44.3398 71.04 44.9798 71.16 45.6598 70.88C45.9398 70.76 46.2998 70.58 46.7398 70.34C46.8198 70.34 46.9198 70.32 47.0398 70.28C47.1998 70.2 47.3198 70.14 47.3998 70.1C47.3998 70.1 47.4398 70.06 47.5198 69.98C47.7198 69.9 47.8398 69.86 47.8798 69.86C48.1598 69.74 48.3798 69.66 48.5398 69.62ZM144.66 29.12C144.66 29.16 144.66 29.68 144.66 30.68C144.18 30.48 143.84 30.2 143.64 29.84C143.48 29.48 143.36 29.06 143.28 28.58C143.2 28.1 143.12 27.74 143.04 27.5C142.16 25.66 140.96 24.22 139.44 23.18C136.88 21.46 134.32 20.38 131.76 19.94C127.92 19.34 124.46 19 121.38 18.92C115.78 18.76 111.62 18.96 108.9 19.52C108.3 19.64 107.68 19.72 107.04 19.76C106.44 19.8 105.68 19.84 104.76 19.88C103.88 19.92 103.28 19.94 102.96 19.94C104.92 18.94 107.34 18.36 110.22 18.2C119.5 17.76 126.64 17.9 131.64 18.62C134.08 18.98 136.54 19.78 139.02 21.02C142.66 22.78 144.54 25.48 144.66 29.12ZM81.2398 25.1C81.2798 25.06 81.3198 25.02 81.3598 24.98C81.3598 24.98 81.3798 24.98 81.4198 24.98C81.4998 24.98 81.5398 24.98 81.5398 24.98C81.5398 24.98 81.5198 25 81.4798 25.04C81.4398 25.04 81.4198 25.06 81.4198 25.1C81.3798 25.1 81.3398 25.1 81.2998 25.1C81.2598 25.1 81.2398 25.1 81.2398 25.1ZM102.48 20.06C102.48 20.06 102.5 20.06 102.54 20.06C102.58 20.02 102.62 19.98 102.66 19.94C102.7 19.94 102.74 19.94 102.78 19.94C102.86 19.94 102.92 19.94 102.96 19.94C102.92 19.94 102.88 19.96 102.84 20C102.8 20 102.76 20.02 102.72 20.06C102.6 20.06 102.52 20.06 102.48 20.06ZM102.06 20.18C101.66 20.5 101.22 20.66 100.74 20.66C100.3 20.66 99.7998 20.58 99.2398 20.42C98.6798 20.26 98.2398 20.2 97.9198 20.24C98.1998 20.2 98.6598 20.16 99.2998 20.12C99.9398 20.04 100.4 20 100.68 20C100.96 20 101.42 20.06 102.06 20.18ZM92.4598 21.98C92.7798 21.78 93.0198 21.66 93.1798 21.62C93.3398 21.54 93.5398 21.48 93.7798 21.44C94.0598 21.4 94.3798 21.4 94.7398 21.44C94.5798 21.6 94.3798 21.72 94.1398 21.8C93.9398 21.88 93.7598 21.92 93.5998 21.92C93.4798 21.92 93.2798 21.92 92.9998 21.92C92.7598 21.92 92.5798 21.94 92.4598 21.98ZM91.9798 22.1C91.3798 22.62 90.7398 22.68 90.0598 22.28C90.7798 22.2 91.4198 22.14 91.9798 22.1ZM91.9798 22.1L92.0998 21.98C92.2198 21.98 92.3398 21.98 92.4598 21.98C92.4198 21.98 92.3798 22 92.3398 22.04L92.1598 22.1C92.1198 22.1 92.0598 22.1 91.9798 22.1ZM85.6198 23.6C85.7398 23.52 85.8798 23.46 86.0398 23.42C86.0798 23.42 86.2198 23.48 86.4598 23.6C86.0198 23.8 85.7798 23.9 85.7398 23.9C85.6198 23.94 85.3998 24 85.0798 24.08C85.3598 23.84 85.5398 23.68 85.6198 23.6ZM84.5998 24.26C83.7598 24.78 82.7398 25.02 81.5398 24.98C82.2998 24.54 83.3198 24.3 84.5998 24.26ZM84.5998 24.26C84.6398 24.26 84.6798 24.26 84.7198 24.26C84.7598 24.22 84.7798 24.18 84.7798 24.14C84.9798 24.1 85.0798 24.08 85.0798 24.08C85.0398 24.12 84.9998 24.16 84.9598 24.2C84.9198 24.24 84.8998 24.26 84.8998 24.26C84.8598 24.26 84.7998 24.26 84.7198 24.26H84.5998ZM77.6398 26C78.8398 25.6 80.0398 25.3 81.2398 25.1C80.3198 26.1 79.0798 26.72 77.5198 26.96C76.3598 27.52 75.4998 27.9 74.9398 28.1C74.8598 28.1 74.7598 28.14 74.6398 28.22C71.7998 29.82 69.5798 30.94 67.9798 31.58C67.6998 31.78 67.3598 32 66.9598 32.24C66.5998 32.48 66.3598 32.64 66.2398 32.72C66.0398 32.84 65.6998 33.04 65.2198 33.32C64.7398 33.8 64.0398 34.18 63.1198 34.46C63.1198 34.46 63.0998 34.48 63.0598 34.52C63.0198 34.52 62.9998 34.52 62.9998 34.52C62.6798 34.76 62.4398 34.96 62.2798 35.12C61.7998 35.72 61.1798 36.16 60.4198 36.44C60.4198 36.44 60.3998 36.44 60.3598 36.44C60.3198 36.48 60.2998 36.5 60.2998 36.5C59.9798 36.74 59.5398 37 58.9798 37.28C58.9398 37.32 58.8998 37.36 58.8598 37.4C58.8598 37.4 58.8398 37.4 58.7998 37.4C58.4398 37.76 58.1998 38 58.0798 38.12C58.0798 38.16 57.9198 38.2 57.5998 38.24C57.4398 38.32 57.2398 38.46 56.9998 38.66C56.7998 38.86 56.6998 38.96 56.6998 38.96C56.0598 39.4 55.6998 39.64 55.6198 39.68C54.2998 40.88 53.3598 41.7 52.7998 42.14C52.4398 42.46 52.1998 42.5 52.0798 42.26C51.9598 42.1 52.0398 41.9 52.3198 41.66C56.1998 38.38 60.7198 35.14 65.8798 31.94C70.7198 28.94 74.6398 26.96 77.6398 26ZM69.0166 64.76C69.0966 64.88 68.9966 65.3 68.7166 66.02C68.6766 66.18 68.5766 66.28 68.4166 66.32C67.6166 66.56 66.8166 66.88 66.0166 67.28C65.2166 67.64 64.3166 68.14 63.3166 68.78C62.3166 69.38 61.5766 69.8 61.0966 70.04C59.5366 70.92 58.2966 71.52 57.3766 71.84C56.2566 72.24 55.2166 72.34 54.2566 72.14C53.2966 71.94 52.3166 71.4 51.3166 70.52C50.8366 70.08 50.4166 69.4 50.0566 68.48C50.0166 68.44 49.9766 68.36 49.9366 68.24C49.9366 68.08 49.9166 67.8 49.8766 67.4C49.8766 67 49.9166 66.6 49.9966 66.2C50.3166 65.08 50.4766 64.5 50.4766 64.46C51.0366 61.66 52.8966 59.04 56.0566 56.6C57.0966 55.84 58.2166 55.82 59.4166 56.54C59.9766 56.9 60.3166 57.34 60.4366 57.86C60.5966 58.38 60.4966 58.88 60.1366 59.36C59.2166 60.52 57.9966 61.92 56.4766 63.56C56.1566 63.92 55.6566 64.42 54.9766 65.06C54.3366 65.7 53.8566 66.2 53.5366 66.56C53.2166 66.92 53.0566 67.4 53.0566 68C53.0566 68.6 53.2366 69.16 53.5966 69.68C53.8366 70.04 54.1766 70.32 54.6166 70.52C55.0966 70.72 55.5366 70.74 55.9366 70.58C59.4966 69.5 62.8366 67.72 65.9566 65.24C66.5966 64.76 67.2566 64.42 67.9366 64.22C68.0966 64.14 68.2966 64.18 68.5366 64.34C68.7766 64.46 68.9366 64.6 69.0166 64.76ZM52.5766 64.28C52.3366 65.08 53.4966 64.16 56.0566 61.52C56.9766 60.52 57.4566 59.96 57.4966 59.84C58.2566 59.08 58.6366 58.66 58.6366 58.58V58.52C58.6366 58.4 58.3566 58.38 57.7966 58.46C57.2366 58.5 56.9366 58.56 56.8966 58.64C56.1366 59 55.4366 59.54 54.7966 60.26C54.1566 60.94 53.6366 61.64 53.2366 62.36C52.8766 63.08 52.6566 63.72 52.5766 64.28ZM68.9716 69.5C68.9716 69.5 68.9916 69.52 69.0316 69.56C69.0316 69.64 69.0716 69.72 69.1516 69.8C69.2316 69.88 69.2916 69.96 69.3316 70.04C69.4116 70.12 69.4716 70.2 69.5116 70.28C69.6716 70.72 69.4516 71.08 68.8516 71.36C68.3716 71.56 67.8716 71.6 67.3516 71.48C67.1516 71.44 66.9916 71.36 66.8716 71.24C66.3116 70.8 66.1716 69.88 66.4516 68.48C66.6116 67.6 67.0116 66.64 67.6516 65.6C69.3316 62.84 71.4516 59.52 74.0116 55.64L75.0316 54.08C75.0316 54.08 75.2516 53.72 75.6916 53C75.8916 52.72 76.1716 52.32 76.5316 51.8C76.6516 51.6 76.7916 51.36 76.9516 51.08C77.1516 50.8 77.3316 50.54 77.4916 50.3C77.6916 50.06 77.8516 49.84 77.9716 49.64C78.0116 49.52 78.1116 49.28 78.2716 48.92C78.4716 48.56 78.6316 48.3 78.7516 48.14C78.8316 48.02 78.9916 47.84 79.2316 47.6C79.4716 47.36 79.6316 47.18 79.7116 47.06C79.7516 46.98 80.0116 46.52 80.4916 45.68C80.6116 45.52 80.7916 45.28 81.0316 44.96C81.2716 44.6 81.4316 44.32 81.5116 44.12C81.9116 43.36 82.1716 42.92 82.2916 42.8C82.3716 42.68 82.9316 41.76 83.9716 40.04C84.6516 38.92 85.2516 37.9 85.7716 36.98C86.2116 36.26 86.4716 35.68 86.5516 35.24C86.5516 35.2 86.5716 35.12 86.6116 35C86.6516 34.84 86.6716 34.72 86.6716 34.64C86.7116 34.52 86.7516 34.42 86.7916 34.34C86.8316 34.22 86.8916 34.14 86.9716 34.1C87.0916 34.06 87.2116 34.06 87.3316 34.1C87.3716 33.98 87.4916 33.92 87.6916 33.92C87.8916 33.92 88.0516 34 88.1716 34.16C88.2516 34.16 88.3316 34.22 88.4116 34.34C88.4116 34.38 88.4516 34.5 88.5316 34.7C88.6516 34.86 88.6916 35 88.6516 35.12C88.7316 35.2 88.6916 35.64 88.5316 36.44C88.4516 36.52 88.2116 36.82 87.8116 37.34C87.4516 37.86 87.1916 38.28 87.0316 38.6C86.1916 40.2 84.7716 42.54 82.7716 45.62C81.8516 47.02 80.0916 49.56 77.4916 53.24C74.8116 57.08 72.3316 61.5 70.0516 66.5C69.8916 66.86 69.6716 67.28 69.3916 67.76C69.1516 68.24 69.0116 68.62 68.9716 68.9C68.9316 69.1 68.9316 69.3 68.9716 69.5ZM79.4055 69.5C79.4055 69.5 79.4255 69.52 79.4655 69.56C79.4655 69.64 79.5055 69.72 79.5855 69.8C79.6655 69.88 79.7255 69.96 79.7655 70.04C79.8455 70.12 79.9055 70.2 79.9455 70.28C80.1055 70.72 79.8855 71.08 79.2855 71.36C78.8055 71.56 78.3055 71.6 77.7855 71.48C77.5855 71.44 77.4255 71.36 77.3055 71.24C76.7455 70.8 76.6055 69.88 76.8855 68.48C77.0455 67.6 77.4455 66.64 78.0855 65.6C79.7655 62.84 81.8855 59.52 84.4455 55.64L85.4655 54.08C85.4655 54.08 85.6855 53.72 86.1255 53C86.3255 52.72 86.6055 52.32 86.9655 51.8C87.0855 51.6 87.2255 51.36 87.3855 51.08C87.5855 50.8 87.7655 50.54 87.9255 50.3C88.1255 50.06 88.2855 49.84 88.4055 49.64C88.4455 49.52 88.5455 49.28 88.7055 48.92C88.9055 48.56 89.0655 48.3 89.1855 48.14C89.2655 48.02 89.4255 47.84 89.6655 47.6C89.9055 47.36 90.0655 47.18 90.1455 47.06C90.1855 46.98 90.4455 46.52 90.9255 45.68C91.0455 45.52 91.2255 45.28 91.4655 44.96C91.7055 44.6 91.8655 44.32 91.9455 44.12C92.3455 43.36 92.6055 42.92 92.7255 42.8C92.8055 42.68 93.3655 41.76 94.4055 40.04C95.0855 38.92 95.6855 37.9 96.2055 36.98C96.6455 36.26 96.9055 35.68 96.9855 35.24C96.9855 35.2 97.0055 35.12 97.0455 35C97.0855 34.84 97.1055 34.72 97.1055 34.64C97.1455 34.52 97.1855 34.42 97.2255 34.34C97.2655 34.22 97.3255 34.14 97.4055 34.1C97.5255 34.06 97.6455 34.06 97.7655 34.1C97.8055 33.98 97.9255 33.92 98.1255 33.92C98.3255 33.92 98.4855 34 98.6055 34.16C98.6855 34.16 98.7655 34.22 98.8455 34.34C98.8455 34.38 98.8855 34.5 98.9655 34.7C99.0855 34.86 99.1255 35 99.0855 35.12C99.1655 35.2 99.1255 35.64 98.9655 36.44C98.8855 36.52 98.6455 36.82 98.2455 37.34C97.8855 37.86 97.6255 38.28 97.4655 38.6C96.6255 40.2 95.2055 42.54 93.2055 45.62C92.2855 47.02 90.5255 49.56 87.9255 53.24C85.2455 57.08 82.7655 61.5 80.4855 66.5C80.3255 66.86 80.1055 67.28 79.8255 67.76C79.5855 68.24 79.4455 68.62 79.4055 68.9C79.3655 69.1 79.3655 69.3 79.4055 69.5ZM87.9795 69.5C87.9795 69.42 87.8795 68.86 87.6795 67.82C87.9595 66.46 88.0995 65.74 88.0995 65.66C88.9395 62.78 90.6395 59.72 93.1995 56.48C94.2395 55.2 95.6795 54.34 97.5195 53.9C97.9195 53.78 98.3195 53.8 98.7195 53.96C99.1195 54.08 99.4795 54.3 99.7995 54.62C100.159 54.9 100.399 55.24 100.519 55.64C100.879 56.68 100.999 57.8 100.879 59C100.479 62.6 98.6395 66.06 95.3595 69.38C94.5195 70.18 93.4995 70.92 92.2995 71.6C91.4195 72.08 90.5395 72.1 89.6595 71.66C88.7795 71.26 88.2195 70.54 87.9795 69.5ZM97.0395 65.18C98.5195 62.82 99.2595 60.4 99.2595 57.92C99.2995 57.48 99.0795 57.1 98.5995 56.78C98.1195 56.46 97.6795 56.4 97.2795 56.6C96.3995 57 95.8795 57.32 95.7195 57.56C93.2795 60.8 91.5395 63.24 90.4995 64.88C90.1395 65.48 89.8995 66.56 89.7795 68.12C89.7795 68.6 89.9195 69.02 90.1995 69.38C90.4795 69.7 90.8195 69.9 91.2195 69.98C91.6195 70.06 92.0195 70 92.4195 69.8C94.1395 68.84 95.6795 67.3 97.0395 65.18Z" fill="#2A2A2A"/>
</svg>
