<svg width="64" height="64" viewBox="0 0 64 64" fill="none" xmlns="http://www.w3.org/2000/svg">
<g clip-path="url(#clip0_362_277)">
<rect width="64" height="64" rx="2" fill="white"/>
<path d="M13.356 31.22C13.3747 31.2013 13.4027 31.1827 13.44 31.164C13.4587 31.164 13.468 31.164 13.468 31.164C13.4867 31.164 13.5053 31.164 13.524 31.164C13.5427 31.164 13.5613 31.164 13.58 31.164C13.58 31.164 13.5707 31.164 13.552 31.164C13.5333 31.1827 13.524 31.192 13.524 31.192C13.5053 31.192 13.4493 31.2013 13.356 31.22ZM13.356 31.22C13.2253 31.2947 13.02 31.3973 12.74 31.528C12.908 31.36 13.1133 31.2573 13.356 31.22ZM22.82 28.588C22.4653 28.7933 21.896 28.9053 21.112 28.924C21.4853 28.7 22.0547 28.588 22.82 28.588ZM12.544 31.668C12.544 31.6493 12.5533 31.6307 12.572 31.612C12.5907 31.612 12.6 31.612 12.6 31.612C12.6933 31.556 12.74 31.528 12.74 31.528C12.684 31.6027 12.6467 31.64 12.628 31.64C12.628 31.64 12.6187 31.64 12.6 31.64C12.5627 31.6587 12.544 31.668 12.544 31.668ZM11.564 32.032C11.564 32.032 11.5733 32.0227 11.592 32.004C11.6107 32.004 11.6293 31.9947 11.648 31.976C11.6667 31.976 11.6853 31.976 11.704 31.976C11.6853 31.9947 11.676 32.004 11.676 32.004C11.6573 32.0227 11.648 32.032 11.648 32.032C11.6293 32.032 11.6107 32.032 11.592 32.032C11.5733 32.032 11.564 32.032 11.564 32.032ZM11.564 32.032C11.2093 32.3493 10.64 32.4707 9.856 32.396C10.3787 32.1533 10.948 32.032 11.564 32.032ZM7.084 33.88C7.084 33.88 7 33.9173 6.832 33.992C6.664 34.0667 6.54267 34.132 6.468 34.188C6.59867 34.02 6.804 33.9173 7.084 33.88ZM12.544 31.668C12.3573 31.8547 12.0773 31.9573 11.704 31.976C11.9093 31.7707 12.1893 31.668 12.544 31.668ZM19.908 27.888C19.796 28.2613 19.796 28.5133 19.908 28.644C20.02 28.7747 20.3187 28.868 20.804 28.924C20.8227 28.9427 20.8787 28.952 20.972 28.952C20.916 29.064 20.832 29.1667 20.72 29.26C20.6267 29.3533 20.5333 29.4187 20.44 29.456C20.3653 29.512 20.244 29.568 20.076 29.624C19.9267 29.6987 19.824 29.7547 19.768 29.792C19.2453 30.0347 18.8627 30.4547 18.62 31.052C17.724 33.1987 16.6507 34.8693 15.4 36.064C14.2427 37.184 12.9267 38.0427 11.452 38.64C10.78 38.9013 9.83733 39.228 8.624 39.62C7.93333 39.844 7.14933 39.956 6.272 39.956C5.376 39.9747 4.564 39.9373 3.836 39.844C3.51867 39.8067 3.052 39.648 2.436 39.368C2.06267 39.2 1.82 38.92 1.708 38.528C1.57733 38.1547 1.624 37.8 1.848 37.464C2.70667 36.176 3.68667 35.308 4.788 34.86C4.82533 34.86 4.86267 34.8507 4.9 34.832C4.99333 34.776 5.10533 34.7667 5.236 34.804C5.18 34.8227 5.096 34.8507 4.984 34.888C4.872 34.944 4.788 34.9907 4.732 35.028C4.71333 35.0653 4.62933 35.1587 4.48 35.308C4.38667 35.4387 4.20933 35.616 3.948 35.84C3.668 36.064 3.472 36.2507 3.36 36.4C3.11733 36.6987 2.81867 37.1747 2.464 37.828C2.352 38.0333 2.33333 38.2387 2.408 38.444C2.464 38.668 2.58533 38.8453 2.772 38.976C3.08933 39.1627 3.34133 39.2747 3.528 39.312C4.33067 39.4613 4.93733 39.536 5.348 39.536C5.92667 39.536 6.496 39.508 7.056 39.452C7.224 39.452 7.616 39.3867 8.232 39.256C9.93067 38.9387 11.48 38.3413 12.88 37.464C13.6453 36.9973 14.3267 36.484 14.924 35.924C15.54 35.3827 16.0253 34.7947 16.38 34.16C16.3987 34.1413 16.4453 34.0667 16.52 33.936C16.576 33.8427 16.6693 33.6747 16.8 33.432C16.9493 33.208 17.0613 33.0213 17.136 32.872C17.2107 32.7413 17.2947 32.5733 17.388 32.368C17.4813 32.1627 17.556 31.976 17.612 31.808C17.668 31.6587 17.7987 31.3507 18.004 30.884C18.0413 30.772 18.032 30.66 17.976 30.548C17.9387 30.436 17.8547 30.352 17.724 30.296C17.612 30.24 17.4907 30.2307 17.36 30.268C16.5947 30.436 16.0253 30.5947 15.652 30.744C14.8307 31.024 14.14 31.164 13.58 31.164C13.86 30.9587 14.1773 30.7813 14.532 30.632C14.9053 30.5013 15.316 30.3707 15.764 30.24C16.212 30.1093 16.5573 29.9973 16.8 29.904C16.912 29.8667 17.108 29.8013 17.388 29.708C17.6867 29.6147 17.9107 29.54 18.06 29.484C18.3773 29.316 18.592 29.1293 18.704 28.924C19.3387 27.5987 19.7307 26.4227 19.88 25.396C19.8987 25.34 19.8613 25.284 19.768 25.228C19.6747 25.172 19.6093 25.1627 19.572 25.2C19.3667 25.3493 19.0493 25.62 18.62 26.012C18.2093 26.404 17.8267 26.712 17.472 26.936C17.1173 27.1413 16.7253 27.2533 16.296 27.272C15.9227 27.3093 15.6427 27.2253 15.456 27.02C15.3627 26.9267 15.2787 26.7773 15.204 26.572C15.1667 26.4973 15.1387 26.4133 15.12 26.32C14.9147 25.536 14.9893 24.7613 15.344 23.996C15.6987 23.2307 16.2213 22.5587 16.912 21.98C18.1627 20.972 19.712 20.5613 21.56 20.748C21.5973 20.748 21.6347 20.7667 21.672 20.804C21.7467 20.8973 21.728 20.9813 21.616 21.056C21.3547 21.28 21.224 21.392 21.224 21.392C20.5147 21.4853 20.0387 21.5693 19.796 21.644C19.572 21.7 19.18 21.8867 18.62 22.204C16.8467 23.1747 16.0067 24.3227 16.1 25.648C16.1187 25.8907 16.184 26.0587 16.296 26.152C16.4827 26.3573 16.7813 26.3573 17.192 26.152C17.4533 26.04 17.696 25.8907 17.92 25.704C18.1627 25.4987 18.4147 25.2653 18.676 25.004C18.9373 24.724 19.152 24.5187 19.32 24.388C20.0853 23.716 20.7107 22.9693 21.196 22.148C21.3267 21.9427 21.476 21.7747 21.644 21.644C21.756 21.5693 21.8867 21.5507 22.036 21.588C22.2227 21.644 22.3253 21.7373 22.344 21.868C22.3813 22.26 22.3627 22.54 22.288 22.708C22.12 23.156 21.8587 23.6787 21.504 24.276C20.832 25.452 20.3 26.656 19.908 27.888ZM20.972 28.952V28.924C20.9907 28.924 21 28.924 21 28.924C21 28.924 21.0093 28.924 21.028 28.924C21.0653 28.924 21.0933 28.924 21.112 28.924C21.0933 28.924 21.0747 28.924 21.056 28.924C21.0373 28.9427 21.028 28.952 21.028 28.952C21.028 28.952 21.0187 28.952 21 28.952C20.9813 28.952 20.972 28.952 20.972 28.952ZM22.82 28.588C22.8387 28.588 22.8573 28.5787 22.876 28.56C22.8947 28.56 22.904 28.56 22.904 28.56C22.9973 28.5413 23.0627 28.532 23.1 28.532C23.0813 28.532 23.0533 28.5413 23.016 28.56C22.9787 28.5787 22.9507 28.588 22.932 28.588H22.82ZM9.744 32.452V32.424L9.772 32.396C9.772 32.396 9.78133 32.396 9.8 32.396C9.81867 32.396 9.83733 32.396 9.856 32.396C9.856 32.396 9.84667 32.396 9.828 32.396C9.80933 32.4147 9.8 32.424 9.8 32.424C9.8 32.424 9.79067 32.424 9.772 32.424C9.75333 32.4427 9.744 32.452 9.744 32.452ZM35.056 26.712C35.168 26.712 35.2613 26.768 35.336 26.88C35.4293 26.9733 35.4573 27.0667 35.42 27.16C35.252 27.4213 35.1027 27.552 34.972 27.552C34.3747 27.552 33.348 27.5333 31.892 27.496C31.5373 27.44 31.1267 27.4307 30.66 27.468C30.212 27.4867 29.9507 27.5053 29.876 27.524C29.82 27.524 29.568 27.5613 29.12 27.636C28.6907 27.692 28.2987 27.748 27.944 27.804C27.5333 27.86 25.9187 28.1027 23.1 28.532C24.6867 27.86 26.264 27.468 27.832 27.356C28.168 27.3187 28.4667 27.3093 28.728 27.328C29.008 27.3467 29.316 27.3373 29.652 27.3C29.8013 27.2813 29.9787 27.2627 30.184 27.244C30.3893 27.2067 30.604 27.1787 30.828 27.16C31.9667 27.1227 33.0867 27.0013 34.188 26.796C34.2627 26.7773 34.552 26.7493 35.056 26.712ZM9.744 32.452C9.53867 32.9747 9.02533 33.2733 8.204 33.348C8.316 33.1987 8.456 33.0773 8.624 32.984C8.792 32.8907 8.99733 32.788 9.24 32.676C9.48267 32.564 9.65067 32.4893 9.744 32.452ZM5.46 34.692C5.684 34.58 5.97333 34.4307 6.328 34.244C6.34667 34.2253 6.37467 34.2067 6.412 34.188C6.43067 34.188 6.44933 34.188 6.468 34.188L6.44 34.216L6.384 34.272C6.272 34.328 6.12267 34.4027 5.936 34.496C5.74933 34.608 5.60933 34.692 5.516 34.748C5.49733 34.7293 5.488 34.72 5.488 34.72V34.748C5.46933 34.748 5.42267 34.748 5.348 34.748L5.46 34.692ZM7.224 33.796C7.29867 33.7587 7.392 33.712 7.504 33.656C7.616 33.6 7.728 33.544 7.84 33.488C7.93333 33.432 8.02667 33.3853 8.12 33.348C8.12 33.348 8.148 33.348 8.204 33.348C8.204 33.348 8.19467 33.348 8.176 33.348C8.15733 33.3667 8.148 33.376 8.148 33.376C8.05467 33.432 7.91467 33.5067 7.728 33.6C7.52267 33.712 7.364 33.7867 7.252 33.824C7.21467 33.8427 7.15867 33.8613 7.084 33.88C7.10267 33.8613 7.13067 33.8427 7.168 33.824C7.18667 33.8053 7.20533 33.796 7.224 33.796ZM22.3608 27.104C22.3608 27.0667 22.3142 26.8053 22.2208 26.32C22.3515 25.6853 22.4168 25.3493 22.4168 25.312C22.8088 23.968 23.6022 22.54 24.7968 21.028C25.2822 20.4307 25.9542 20.0293 26.8128 19.824C26.9995 19.768 27.1862 19.7773 27.3728 19.852C27.5595 19.908 27.7275 20.0107 27.8768 20.16C28.0448 20.2907 28.1568 20.4493 28.2128 20.636C28.3808 21.1213 28.4368 21.644 28.3808 22.204C28.1942 23.884 27.3355 25.4987 25.8048 27.048C25.4128 27.4213 24.9368 27.7667 24.3768 28.084C23.9662 28.308 23.5555 28.3173 23.1448 28.112C22.7342 27.9253 22.4728 27.5893 22.3608 27.104ZM26.5888 25.088C27.2795 23.9867 27.6248 22.8573 27.6248 21.7C27.6435 21.4947 27.5408 21.3173 27.3168 21.168C27.0928 21.0187 26.8875 20.9907 26.7008 21.084C26.2902 21.2707 26.0475 21.42 25.9728 21.532C24.8342 23.044 24.0222 24.1827 23.5368 24.948C23.3688 25.228 23.2568 25.732 23.2008 26.46C23.2008 26.684 23.2662 26.88 23.3968 27.048C23.5275 27.1973 23.6862 27.2907 23.8728 27.328C24.0595 27.3653 24.2462 27.3373 24.4328 27.244C25.2355 26.796 25.9542 26.0773 26.5888 25.088ZM28.9573 27.104C28.9573 27.0667 28.9106 26.8053 28.8173 26.32C28.9479 25.6853 29.0133 25.3493 29.0133 25.312C29.4053 23.968 30.1986 22.54 31.3933 21.028C31.8786 20.4307 32.5506 20.0293 33.4093 19.824C33.5959 19.768 33.7826 19.7773 33.9693 19.852C34.1559 19.908 34.3239 20.0107 34.4733 20.16C34.6413 20.2907 34.7533 20.4493 34.8093 20.636C34.9773 21.1213 35.0333 21.644 34.9773 22.204C34.7906 23.884 33.9319 25.4987 32.4013 27.048C32.0093 27.4213 31.5333 27.7667 30.9733 28.084C30.5626 28.308 30.1519 28.3173 29.7413 28.112C29.3306 27.9253 29.0693 27.5893 28.9573 27.104ZM33.1853 25.088C33.8759 23.9867 34.2213 22.8573 34.2213 21.7C34.2399 21.4947 34.1373 21.3173 33.9133 21.168C33.6893 21.0187 33.4839 20.9907 33.2973 21.084C32.8866 21.2707 32.6439 21.42 32.5693 21.532C31.4306 23.044 30.6186 24.1827 30.1333 24.948C29.9653 25.228 29.8533 25.732 29.7973 26.46C29.7973 26.684 29.8626 26.88 29.9933 27.048C30.1239 27.1973 30.2826 27.2907 30.4693 27.328C30.6559 27.3653 30.8426 27.3373 31.0293 27.244C31.8319 26.796 32.5506 26.0773 33.1853 25.088ZM42.7217 25.144C42.647 25.2933 42.563 25.5733 42.4697 25.984C42.451 26.152 42.451 26.3107 42.4697 26.46C42.4883 26.6093 42.535 26.7493 42.6097 26.88C42.703 26.992 42.8057 27.0853 42.9177 27.16C43.1977 27.328 43.5523 27.3093 43.9817 27.104C44.971 26.6187 45.867 25.984 46.6697 25.2C46.7257 25.1253 46.791 25.0693 46.8657 25.032C46.9403 24.976 47.0057 24.9387 47.0617 24.92C47.1363 24.8827 47.2017 24.864 47.2577 24.864C47.3137 24.8453 47.351 24.836 47.3697 24.836C47.407 24.836 47.435 24.836 47.4537 24.836C47.491 24.8547 47.5003 24.9293 47.4817 25.06C47.463 25.172 47.435 25.256 47.3977 25.312C46.6883 26.2453 45.7363 27.0573 44.5417 27.748C44.2057 27.972 43.9443 28.112 43.7577 28.168C42.843 28.4667 42.1057 28.28 41.5457 27.608C41.527 27.5707 41.2843 27.244 40.8177 26.628C40.687 26.628 40.547 26.656 40.3977 26.712C40.267 26.7493 40.1643 26.7867 40.0897 26.824C40.0337 26.8613 39.931 26.936 39.7817 27.048C39.651 27.1413 39.5763 27.1973 39.5577 27.216C38.6617 27.8133 38.1577 28.14 38.0457 28.196C37.691 28.4013 37.3363 28.4107 36.9817 28.224C36.627 28.056 36.4217 27.776 36.3657 27.384C36.179 25.872 36.3657 24.5653 36.9257 23.464C37.2803 22.792 37.5883 22.288 37.8497 21.952C38.3537 21.336 38.8297 20.6733 39.2777 19.964C39.3523 19.8333 39.455 19.7027 39.5857 19.572C39.7163 19.4227 39.819 19.3107 39.8937 19.236C39.987 19.1613 40.127 19.04 40.3137 18.872C40.5003 18.704 40.6217 18.6013 40.6777 18.564C40.7897 18.452 40.9577 18.452 41.1817 18.564C41.4057 18.6573 41.527 18.788 41.5457 18.956C41.5643 19.4227 41.583 19.936 41.6017 20.496C41.6017 20.8693 41.6203 21.9613 41.6577 23.772C42.0497 23.492 42.3297 23.1747 42.4977 22.82C43.543 20.6173 45.335 17.4533 47.8737 13.328C48.5083 12.3013 49.2177 11.5547 50.0017 11.088C50.151 11.032 50.2817 11.06 50.3937 11.172C50.5057 11.284 50.515 11.4707 50.4217 11.732C50.067 12.348 49.4043 13.5053 48.4337 15.204C47.4817 16.9027 46.7257 18.228 46.1657 19.18C45.9417 19.5533 45.5963 20.1227 45.1297 20.888C44.663 21.6347 44.3177 22.204 44.0937 22.596C43.739 23.1933 43.2817 24.0427 42.7217 25.144ZM41.1537 24.808C41.2283 24.7147 41.2843 24.6213 41.3217 24.528C41.3777 24.4347 41.4243 24.3133 41.4617 24.164C41.5177 23.996 41.5643 23.884 41.6017 23.828C41.0977 23.716 40.8363 23.436 40.8177 22.988C40.799 22.764 40.7803 22.456 40.7617 22.064C40.7617 21.6533 40.7523 21.3733 40.7337 21.224C40.715 20.832 40.547 20.636 40.2297 20.636C39.9683 20.7667 39.735 20.9347 39.5297 21.14C39.3243 21.3453 39.0817 21.6347 38.8017 22.008C38.5403 22.3813 38.3723 22.6147 38.2977 22.708C37.439 23.772 37.047 25.1533 37.1217 26.852C37.1403 26.9827 37.2243 27.0947 37.3737 27.188C37.523 27.2813 37.663 27.3 37.7937 27.244C39.0443 26.74 40.1643 25.928 41.1537 24.808ZM48.9667 27.552C49.0227 27.6827 48.9947 27.8133 48.8827 27.944C48.7894 28.056 48.6494 28.1213 48.4627 28.14C48.4441 28.1213 48.4067 28.084 48.3507 28.028C48.2947 27.972 48.2481 27.9253 48.2107 27.888C48.1921 27.832 48.1827 27.7853 48.1827 27.748C48.1827 27.6547 48.2107 27.5613 48.2667 27.468C48.3414 27.356 48.4161 27.2907 48.4907 27.272C48.5467 27.2533 48.6307 27.2813 48.7427 27.356C48.8547 27.412 48.9294 27.4773 48.9667 27.552ZM24.164 40.16C24.2013 40.16 24.2293 40.16 24.248 40.16C24.4533 40.16 24.5933 40.2627 24.668 40.468C24.724 40.636 24.6587 40.804 24.472 40.972C24.3973 41.028 24.3227 41.0747 24.248 41.112C24.192 41.1493 24.108 41.1773 23.996 41.196C23.9027 41.2333 23.828 41.2613 23.772 41.28C23.716 41.2987 23.6227 41.3173 23.492 41.336C23.38 41.3547 23.296 41.364 23.24 41.364C22.8293 41.4387 22.4747 41.4853 22.176 41.504C21.84 41.5227 21.5413 41.4107 21.28 41.168C21.0373 40.944 20.9067 40.6547 20.888 40.3C20.8133 39.5347 20.9253 38.816 21.224 38.144C21.4107 37.752 21.7 37.08 22.092 36.128C22.2413 35.7733 22.316 35.596 22.316 35.596C22.204 35.5587 21.9707 35.6333 21.616 35.82C20.4773 36.3987 19.46 37.2013 18.564 38.228C17.836 39.068 17.0147 39.9733 16.1 40.944C15.8947 41.168 15.6893 41.2987 15.484 41.336C15.2973 41.3733 15.0827 41.3267 14.84 41.196C14.7093 41.1213 14.6347 40.9813 14.616 40.776C14.616 40.4773 14.6533 40.244 14.728 40.076C15.1573 39.18 15.4747 38.6107 15.68 38.368C16.072 37.8453 16.6787 37.0333 17.5 35.932C18.34 34.8307 19.096 33.8693 19.768 33.048C20.44 32.208 21.112 31.4333 21.784 30.724C22.12 30.3507 22.764 29.7347 23.716 28.876C23.7347 28.8573 24.0147 28.6987 24.556 28.4C24.4627 28.6053 24.3507 28.8013 24.22 28.988C24.0893 29.156 23.9773 29.2867 23.884 29.38C23.8093 29.4733 23.688 29.604 23.52 29.772C23.352 29.94 23.24 30.0427 23.184 30.08C23.0533 30.2293 22.8107 30.4813 22.456 30.836C22.1013 31.1907 21.8307 31.4613 21.644 31.648C21.4013 31.928 21 32.4413 20.44 33.188C19.7867 34.0467 19.348 34.644 19.124 34.98C19.0493 35.1107 18.9467 35.26 18.816 35.428C18.6853 35.5773 18.5547 35.736 18.424 35.904C18.312 36.0533 18.2187 36.2027 18.144 36.352C18.0507 36.52 17.9667 36.7347 17.892 36.996C17.8733 37.052 17.8733 37.0893 17.892 37.108C17.9107 37.164 17.976 37.1453 18.088 37.052C18.4053 36.8467 18.7507 36.6133 19.124 36.352C19.572 36.072 20.16 35.708 20.888 35.26C20.9627 35.204 21.056 35.148 21.168 35.092C21.28 35.0173 21.392 34.952 21.504 34.896C21.616 34.8213 21.7093 34.756 21.784 34.7C21.84 34.6627 21.9147 34.616 22.008 34.56C22.12 34.4853 22.1947 34.4387 22.232 34.42C22.344 34.3453 22.428 34.2893 22.484 34.252C22.6147 34.1773 22.68 34.14 22.68 34.14C22.96 33.9533 23.184 33.8413 23.352 33.804C23.4827 33.748 23.604 33.7293 23.716 33.748C23.8653 33.7667 23.9773 33.8227 24.052 33.916C24.1453 34.028 24.1827 34.1867 24.164 34.392C24.1453 34.7653 23.9587 35.2413 23.604 35.82C23.5293 35.9507 23.3987 36.1747 23.212 36.492C23.0253 36.8093 22.876 37.052 22.764 37.22C22.148 38.2467 21.7933 39.0587 21.7 39.656C21.6253 40.048 21.7 40.356 21.924 40.58C22.204 40.8227 22.5027 40.8787 22.82 40.748C22.9507 40.692 23.1187 40.608 23.324 40.496C23.3613 40.496 23.408 40.4867 23.464 40.468C23.5387 40.4307 23.5947 40.4027 23.632 40.384C23.632 40.384 23.6507 40.3653 23.688 40.328C23.7813 40.2907 23.8373 40.272 23.856 40.272C23.9867 40.216 24.0893 40.1787 24.164 40.16ZM69.02 21.26C69.02 21.2787 69.02 21.5213 69.02 21.988C68.796 21.8947 68.6373 21.764 68.544 21.596C68.4693 21.428 68.4133 21.232 68.376 21.008C68.3387 20.784 68.3013 20.616 68.264 20.504C67.8533 19.6453 67.2933 18.9733 66.584 18.488C65.3893 17.6853 64.1947 17.1813 63 16.976C61.208 16.696 59.5933 16.5373 58.156 16.5C55.5427 16.4253 53.6013 16.5187 52.332 16.78C52.052 16.836 51.7627 16.8733 51.464 16.892C51.184 16.9107 50.8293 16.9293 50.4 16.948C49.9893 16.9667 49.7093 16.976 49.56 16.976C50.4747 16.5093 51.604 16.2387 52.948 16.164C57.2787 15.9587 60.6107 16.024 62.944 16.36C64.0827 16.528 65.2307 16.9013 66.388 17.48C68.0867 18.3013 68.964 19.5613 69.02 21.26ZM39.424 19.384C39.4427 19.3653 39.4613 19.3467 39.48 19.328C39.48 19.328 39.4893 19.328 39.508 19.328C39.5453 19.328 39.564 19.328 39.564 19.328C39.564 19.328 39.5547 19.3373 39.536 19.356C39.5173 19.356 39.508 19.3653 39.508 19.384C39.4893 19.384 39.4707 19.384 39.452 19.384C39.4333 19.384 39.424 19.384 39.424 19.384ZM49.336 17.032C49.336 17.032 49.3453 17.032 49.364 17.032C49.3827 17.0133 49.4013 16.9947 49.42 16.976C49.4387 16.976 49.4573 16.976 49.476 16.976C49.5133 16.976 49.5413 16.976 49.56 16.976C49.5413 16.976 49.5227 16.9853 49.504 17.004C49.4853 17.004 49.4667 17.0133 49.448 17.032C49.392 17.032 49.3547 17.032 49.336 17.032ZM49.14 17.088C48.9533 17.2373 48.748 17.312 48.524 17.312C48.3187 17.312 48.0853 17.2747 47.824 17.2C47.5627 17.1253 47.3573 17.0973 47.208 17.116C47.3387 17.0973 47.5533 17.0787 47.852 17.06C48.1507 17.0227 48.3653 17.004 48.496 17.004C48.6267 17.004 48.8413 17.032 49.14 17.088ZM44.66 17.928C44.8093 17.8347 44.9213 17.7787 44.996 17.76C45.0707 17.7227 45.164 17.6947 45.276 17.676C45.4067 17.6573 45.556 17.6573 45.724 17.676C45.6493 17.7507 45.556 17.8067 45.444 17.844C45.3507 17.8813 45.2667 17.9 45.192 17.9C45.136 17.9 45.0427 17.9 44.912 17.9C44.8 17.9 44.716 17.9093 44.66 17.928ZM44.436 17.984C44.156 18.2267 43.8573 18.2547 43.54 18.068C43.876 18.0307 44.1747 18.0027 44.436 17.984ZM44.436 17.984L44.492 17.928C44.548 17.928 44.604 17.928 44.66 17.928C44.6413 17.928 44.6227 17.9373 44.604 17.956L44.52 17.984C44.5013 17.984 44.4733 17.984 44.436 17.984ZM41.468 18.684C41.524 18.6467 41.5893 18.6187 41.664 18.6C41.6827 18.6 41.748 18.628 41.86 18.684C41.6547 18.7773 41.5427 18.824 41.524 18.824C41.468 18.8427 41.3653 18.8707 41.216 18.908C41.3467 18.796 41.4307 18.7213 41.468 18.684ZM40.992 18.992C40.6 19.2347 40.124 19.3467 39.564 19.328C39.9187 19.1227 40.3947 19.0107 40.992 18.992ZM40.992 18.992C41.0107 18.992 41.0293 18.992 41.048 18.992C41.0667 18.9733 41.076 18.9547 41.076 18.936C41.1693 18.9173 41.216 18.908 41.216 18.908C41.1973 18.9267 41.1787 18.9453 41.16 18.964C41.1413 18.9827 41.132 18.992 41.132 18.992C41.1133 18.992 41.0853 18.992 41.048 18.992H40.992ZM37.744 19.804C38.304 19.6173 38.864 19.4773 39.424 19.384C38.9947 19.8507 38.416 20.14 37.688 20.252C37.1467 20.5133 36.7453 20.6907 36.484 20.784C36.4467 20.784 36.4 20.8027 36.344 20.84C35.0187 21.5867 33.9827 22.1093 33.236 22.408C33.1053 22.5013 32.9467 22.604 32.76 22.716C32.592 22.828 32.48 22.9027 32.424 22.94C32.3307 22.996 32.172 23.0893 31.948 23.22C31.724 23.444 31.3973 23.6213 30.968 23.752C30.968 23.752 30.9587 23.7613 30.94 23.78C30.9213 23.78 30.912 23.78 30.912 23.78C30.7627 23.892 30.6507 23.9853 30.576 24.06C30.352 24.34 30.0627 24.5453 29.708 24.676C29.708 24.676 29.6987 24.676 29.68 24.676C29.6613 24.6947 29.652 24.704 29.652 24.704C29.5027 24.816 29.2973 24.9373 29.036 25.068C29.0173 25.0867 28.9987 25.1053 28.98 25.124C28.98 25.124 28.9707 25.124 28.952 25.124C28.784 25.292 28.672 25.404 28.616 25.46C28.616 25.4787 28.5413 25.4973 28.392 25.516C28.3173 25.5533 28.224 25.6187 28.112 25.712C28.0187 25.8053 27.972 25.852 27.972 25.852C27.6733 26.0573 27.5053 26.1693 27.468 26.188C26.852 26.748 26.4133 27.1307 26.152 27.336C25.984 27.4853 25.872 27.504 25.816 27.392C25.76 27.3173 25.7973 27.224 25.928 27.112C27.7387 25.5813 29.848 24.0693 32.256 22.576C34.5147 21.176 36.344 20.252 37.744 19.804ZM33.9159 37.892C33.9532 37.948 33.9065 38.144 33.7759 38.48C33.7572 38.5547 33.7105 38.6013 33.6359 38.62C33.2625 38.732 32.8892 38.8813 32.5159 39.068C32.1425 39.236 31.7225 39.4693 31.2559 39.768C30.7892 40.048 30.4439 40.244 30.2199 40.356C29.4919 40.7667 28.9132 41.0467 28.4839 41.196C27.9612 41.3827 27.4759 41.4293 27.0279 41.336C26.5799 41.2427 26.1225 40.9907 25.6559 40.58C25.4319 40.3747 25.2359 40.0573 25.0679 39.628C25.0492 39.6093 25.0305 39.572 25.0119 39.516C25.0119 39.4413 25.0025 39.3107 24.9839 39.124C24.9839 38.9373 25.0025 38.7507 25.0399 38.564C25.1892 38.0413 25.2639 37.7707 25.2639 37.752C25.5252 36.4453 26.3932 35.2227 27.8679 34.084C28.3532 33.7293 28.8759 33.72 29.4359 34.056C29.6972 34.224 29.8559 34.4293 29.9119 34.672C29.9865 34.9147 29.9399 35.148 29.7719 35.372C29.3425 35.9133 28.7732 36.5667 28.0639 37.332C27.9145 37.5 27.6812 37.7333 27.3639 38.032C27.0652 38.3307 26.8412 38.564 26.6919 38.732C26.5425 38.9 26.4679 39.124 26.4679 39.404C26.4679 39.684 26.5519 39.9453 26.7199 40.188C26.8319 40.356 26.9905 40.4867 27.1959 40.58C27.4199 40.6733 27.6252 40.6827 27.8119 40.608C29.4732 40.104 31.0319 39.2733 32.4879 38.116C32.7865 37.892 33.0945 37.7333 33.4119 37.64C33.4865 37.6027 33.5799 37.6213 33.6919 37.696C33.8039 37.752 33.8785 37.8173 33.9159 37.892ZM26.2439 37.668C26.1319 38.0413 26.6732 37.612 27.8679 36.38C28.2972 35.9133 28.5212 35.652 28.5399 35.596C28.8945 35.2413 29.0719 35.0453 29.0719 35.008V34.98C29.0719 34.924 28.9412 34.9147 28.6799 34.952C28.4185 34.9707 28.2785 34.9987 28.2599 35.036C27.9052 35.204 27.5785 35.456 27.2799 35.792C26.9812 36.1093 26.7385 36.436 26.5519 36.772C26.3839 37.108 26.2812 37.4067 26.2439 37.668ZM34.0909 40.104C34.0909 40.104 34.1002 40.1133 34.1189 40.132C34.1189 40.1693 34.1375 40.2067 34.1749 40.244C34.2122 40.2813 34.2402 40.3187 34.2589 40.356C34.2962 40.3933 34.3242 40.4307 34.3429 40.468C34.4175 40.6733 34.3149 40.8413 34.0349 40.972C33.8109 41.0653 33.5775 41.084 33.3349 41.028C33.2415 41.0093 33.1669 40.972 33.1109 40.916C32.8495 40.7107 32.7842 40.2813 32.9149 39.628C32.9895 39.2173 33.1762 38.7693 33.4749 38.284C34.2589 36.996 35.2482 35.4467 36.4429 33.636L36.9189 32.908C36.9189 32.908 37.0215 32.74 37.2269 32.404C37.3202 32.2733 37.4509 32.0867 37.6189 31.844C37.6749 31.7507 37.7402 31.6387 37.8149 31.508C37.9082 31.3773 37.9922 31.256 38.0669 31.144C38.1602 31.032 38.2349 30.9293 38.2909 30.836C38.3095 30.78 38.3562 30.668 38.4309 30.5C38.5242 30.332 38.5989 30.2107 38.6549 30.136C38.6922 30.08 38.7669 29.996 38.8789 29.884C38.9909 29.772 39.0655 29.688 39.1029 29.632C39.1215 29.5947 39.2429 29.38 39.4669 28.988C39.5229 28.9133 39.6069 28.8013 39.7189 28.652C39.8309 28.484 39.9055 28.3533 39.9429 28.26C40.1295 27.9053 40.2509 27.7 40.3069 27.644C40.3442 27.588 40.6055 27.1587 41.0909 26.356C41.4082 25.8333 41.6882 25.3573 41.9309 24.928C42.1362 24.592 42.2575 24.3213 42.2949 24.116C42.2949 24.0973 42.3042 24.06 42.3229 24.004C42.3415 23.9293 42.3509 23.8733 42.3509 23.836C42.3695 23.78 42.3882 23.7333 42.4069 23.696C42.4255 23.64 42.4535 23.6027 42.4909 23.584C42.5469 23.5653 42.6029 23.5653 42.6589 23.584C42.6775 23.528 42.7335 23.5 42.8269 23.5C42.9202 23.5 42.9949 23.5373 43.0509 23.612C43.0882 23.612 43.1255 23.64 43.1629 23.696C43.1629 23.7147 43.1815 23.7707 43.2189 23.864C43.2749 23.9387 43.2935 24.004 43.2749 24.06C43.3122 24.0973 43.2935 24.3027 43.2189 24.676C43.1815 24.7133 43.0695 24.8533 42.8829 25.096C42.7149 25.3387 42.5935 25.5347 42.5189 25.684C42.1269 26.4307 41.4642 27.5227 40.5309 28.96C40.1015 29.6133 39.2802 30.7987 38.0669 32.516C36.8162 34.308 35.6589 36.3707 34.5949 38.704C34.5202 38.872 34.4175 39.068 34.2869 39.292C34.1749 39.516 34.1095 39.6933 34.0909 39.824C34.0722 39.9173 34.0722 40.0107 34.0909 40.104ZM39.156 40.104C39.156 40.104 39.1654 40.1133 39.184 40.132C39.184 40.1693 39.2027 40.2067 39.24 40.244C39.2774 40.2813 39.3054 40.3187 39.324 40.356C39.3614 40.3933 39.3894 40.4307 39.408 40.468C39.4827 40.6733 39.38 40.8413 39.1 40.972C38.876 41.0653 38.6427 41.084 38.4 41.028C38.3067 41.0093 38.232 40.972 38.176 40.916C37.9147 40.7107 37.8494 40.2813 37.98 39.628C38.0547 39.2173 38.2414 38.7693 38.54 38.284C39.324 36.996 40.3134 35.4467 41.508 33.636L41.984 32.908C41.984 32.908 42.0867 32.74 42.292 32.404C42.3854 32.2733 42.516 32.0867 42.684 31.844C42.74 31.7507 42.8054 31.6387 42.88 31.508C42.9734 31.3773 43.0574 31.256 43.132 31.144C43.2254 31.032 43.3 30.9293 43.356 30.836C43.3747 30.78 43.4214 30.668 43.496 30.5C43.5894 30.332 43.664 30.2107 43.72 30.136C43.7574 30.08 43.832 29.996 43.944 29.884C44.056 29.772 44.1307 29.688 44.168 29.632C44.1867 29.5947 44.308 29.38 44.532 28.988C44.588 28.9133 44.672 28.8013 44.784 28.652C44.896 28.484 44.9707 28.3533 45.008 28.26C45.1947 27.9053 45.316 27.7 45.372 27.644C45.4094 27.588 45.6707 27.1587 46.156 26.356C46.4734 25.8333 46.7534 25.3573 46.996 24.928C47.2014 24.592 47.3227 24.3213 47.36 24.116C47.36 24.0973 47.3694 24.06 47.388 24.004C47.4067 23.9293 47.416 23.8733 47.416 23.836C47.4347 23.78 47.4534 23.7333 47.472 23.696C47.4907 23.64 47.5187 23.6027 47.556 23.584C47.612 23.5653 47.668 23.5653 47.724 23.584C47.7427 23.528 47.7987 23.5 47.892 23.5C47.9854 23.5 48.06 23.5373 48.116 23.612C48.1534 23.612 48.1907 23.64 48.228 23.696C48.228 23.7147 48.2467 23.7707 48.284 23.864C48.34 23.9387 48.3587 24.004 48.34 24.06C48.3774 24.0973 48.3587 24.3027 48.284 24.676C48.2467 24.7133 48.1347 24.8533 47.948 25.096C47.78 25.3387 47.6587 25.5347 47.584 25.684C47.192 26.4307 46.5294 27.5227 45.596 28.96C45.1667 29.6133 44.3454 30.7987 43.132 32.516C41.8814 34.308 40.724 36.3707 39.66 38.704C39.5854 38.872 39.4827 39.068 39.352 39.292C39.24 39.516 39.1747 39.6933 39.156 39.824C39.1374 39.9173 39.1374 40.0107 39.156 40.104ZM43.3532 40.104C43.3532 40.0667 43.3065 39.8053 43.2132 39.32C43.3439 38.6853 43.4092 38.3493 43.4092 38.312C43.8012 36.968 44.5945 35.54 45.7892 34.028C46.2745 33.4307 46.9465 33.0293 47.8052 32.824C47.9919 32.768 48.1785 32.7773 48.3652 32.852C48.5519 32.908 48.7199 33.0107 48.8692 33.16C49.0372 33.2907 49.1492 33.4493 49.2052 33.636C49.3732 34.1213 49.4292 34.644 49.3732 35.204C49.1865 36.884 48.3279 38.4987 46.7972 40.048C46.4052 40.4213 45.9292 40.7667 45.3692 41.084C44.9585 41.308 44.5479 41.3173 44.1372 41.112C43.7265 40.9253 43.4652 40.5893 43.3532 40.104ZM47.5812 38.088C48.2719 36.9867 48.6172 35.8573 48.6172 34.7C48.6359 34.4947 48.5332 34.3173 48.3092 34.168C48.0852 34.0187 47.8799 33.9907 47.6932 34.084C47.2825 34.2707 47.0399 34.42 46.9652 34.532C45.8265 36.044 45.0145 37.1827 44.5292 37.948C44.3612 38.228 44.2492 38.732 44.1932 39.46C44.1932 39.684 44.2585 39.88 44.3892 40.048C44.5199 40.1973 44.6785 40.2907 44.8652 40.328C45.0519 40.3653 45.2385 40.3373 45.4252 40.244C46.2279 39.796 46.9465 39.0773 47.5812 38.088Z" fill="#002D97"/>
<path d="M19.972 49.164C20.484 49.156 20.868 49.152 21.124 49.152C21.588 49.144 22.008 49.144 22.384 49.152C22.448 49.152 22.504 49.188 22.552 49.26C22.6 49.332 22.604 49.396 22.564 49.452C22.476 49.588 22.404 49.652 22.348 49.644C22.22 49.604 22.084 49.576 21.94 49.56C21.804 49.544 21.676 49.536 21.556 49.536C21.436 49.536 21.3 49.54 21.148 49.548C20.996 49.556 20.864 49.568 20.752 49.584C20.648 49.592 20.516 49.604 20.356 49.62C20.196 49.636 20.064 49.648 19.96 49.656C19.872 49.664 19.772 49.64 19.66 49.584C19.604 49.552 19.576 49.496 19.576 49.416C19.576 49.328 19.608 49.272 19.672 49.248C19.768 49.2 19.868 49.172 19.972 49.164ZM26.8202 51C26.8042 51.064 26.7802 51.1 26.7482 51.108C26.5882 51.132 26.4602 51.1 26.3642 51.012C26.3242 50.98 26.2722 50.916 26.2082 50.82C26.1602 50.756 26.1242 50.712 26.1002 50.688C25.9882 50.568 25.8402 50.404 25.6562 50.196C25.6082 50.148 25.5322 50.124 25.4282 50.124C25.3722 50.124 25.3282 50.136 25.2962 50.16C25.0242 50.296 24.7602 50.496 24.5042 50.76C24.4162 50.848 24.2762 50.952 24.0842 51.072C24.0362 51.096 23.9842 51.088 23.9282 51.048C23.8722 51 23.8482 50.952 23.8562 50.904C23.9042 50.664 24.0202 50.444 24.2042 50.244C24.4282 49.996 24.7322 49.592 25.1162 49.032C25.4202 48.584 25.6562 48.256 25.8242 48.048C25.8482 48.024 25.8722 47.976 25.8962 47.904C25.9042 47.872 25.9122 47.848 25.9202 47.832C25.9362 47.776 25.9202 47.7 25.8722 47.604C25.8402 47.548 25.8042 47.516 25.7642 47.508C25.6762 47.492 25.6002 47.492 25.5362 47.508C25.4322 47.548 25.3242 47.644 25.2122 47.796C25.1242 47.916 25.0482 47.996 24.9842 48.036C24.9362 48.06 24.8922 48.04 24.8522 47.976C24.7962 47.88 24.7922 47.792 24.8402 47.712C25.0002 47.416 25.2242 47.192 25.5122 47.04C25.6882 46.944 25.8522 46.92 26.0042 46.968C26.1562 47.016 26.2762 47.132 26.3642 47.316C26.4522 47.5 26.4562 47.66 26.3762 47.796C26.2962 47.924 26.1802 48.104 26.0282 48.336C25.9162 48.504 25.8322 48.628 25.7762 48.708C25.7442 48.764 25.6522 48.896 25.5002 49.104C25.2762 49.424 25.1442 49.62 25.1042 49.692L25.1762 49.74C25.1762 49.732 25.2002 49.716 25.2482 49.692C25.2882 49.676 25.3122 49.664 25.3202 49.656C25.3362 49.648 25.3602 49.636 25.3922 49.62C25.4722 49.556 25.5402 49.524 25.5962 49.524H25.6082C25.6642 49.524 25.7362 49.552 25.8242 49.608C26.1122 49.808 26.3002 50.048 26.3882 50.328C26.3882 50.344 26.4002 50.392 26.4242 50.472C26.4562 50.552 26.4962 50.644 26.5442 50.748C26.5922 50.844 26.6362 50.9 26.6762 50.916C26.7402 50.948 26.7882 50.976 26.8202 51ZM30.5734 49.38C30.3574 50.084 29.8534 50.588 29.0614 50.892C28.8854 50.956 28.7014 50.948 28.5094 50.868C28.3654 50.812 28.2494 50.712 28.1614 50.568C28.0814 50.416 28.0654 50.256 28.1134 50.088C28.1214 50.048 28.1374 49.992 28.1614 49.92C28.2014 49.808 28.2294 49.724 28.2454 49.668C28.3974 48.94 28.8054 48.312 29.4694 47.784C29.5894 47.68 29.7334 47.628 29.9014 47.628C29.9654 47.628 30.0334 47.636 30.1054 47.652C30.2654 47.684 30.4174 47.8 30.5614 48C30.7134 48.2 30.7934 48.392 30.8014 48.576C30.7934 48.6 30.7894 48.628 30.7894 48.66C30.7814 48.74 30.7734 48.8 30.7654 48.84C30.7494 48.896 30.7174 48.984 30.6694 49.104C30.6214 49.224 30.5894 49.316 30.5734 49.38ZM28.7254 50.436C28.8214 50.516 28.9214 50.556 29.0254 50.556C29.1374 50.556 29.2454 50.524 29.3494 50.46C29.8934 50.116 30.2294 49.604 30.3574 48.924C30.3734 48.868 30.3774 48.796 30.3694 48.708C30.3694 48.692 30.3694 48.68 30.3694 48.672L30.3574 48.66C30.3494 48.516 30.2774 48.404 30.1414 48.324C30.0614 48.268 29.9854 48.256 29.9134 48.288C29.7694 48.344 29.6214 48.428 29.4694 48.54C29.3254 48.652 29.2094 48.752 29.1214 48.84C29.0334 48.928 28.9174 49.052 28.7734 49.212L28.7494 49.236C28.6774 49.316 28.6134 49.48 28.5574 49.728L28.5454 49.812C28.4814 50.084 28.5414 50.292 28.7254 50.436ZM35.0406 51C35.0246 51.064 35.0006 51.1 34.9686 51.108C34.8086 51.132 34.6806 51.1 34.5846 51.012C34.5446 50.98 34.4926 50.916 34.4286 50.82C34.3806 50.756 34.3446 50.712 34.3206 50.688C34.2086 50.568 34.0606 50.404 33.8766 50.196C33.8286 50.148 33.7526 50.124 33.6486 50.124C33.5926 50.124 33.5486 50.136 33.5166 50.16C33.2446 50.296 32.9806 50.496 32.7246 50.76C32.6366 50.848 32.4966 50.952 32.3046 51.072C32.2566 51.096 32.2046 51.088 32.1486 51.048C32.0926 51 32.0686 50.952 32.0766 50.904C32.1246 50.664 32.2406 50.444 32.4246 50.244C32.6486 49.996 32.9526 49.592 33.3366 49.032C33.6406 48.584 33.8766 48.256 34.0446 48.048C34.0686 48.024 34.0926 47.976 34.1166 47.904C34.1246 47.872 34.1326 47.848 34.1406 47.832C34.1566 47.776 34.1406 47.7 34.0926 47.604C34.0606 47.548 34.0246 47.516 33.9846 47.508C33.8966 47.492 33.8206 47.492 33.7566 47.508C33.6526 47.548 33.5446 47.644 33.4326 47.796C33.3446 47.916 33.2686 47.996 33.2046 48.036C33.1566 48.06 33.1126 48.04 33.0726 47.976C33.0166 47.88 33.0126 47.792 33.0606 47.712C33.2206 47.416 33.4446 47.192 33.7326 47.04C33.9086 46.944 34.0726 46.92 34.2246 46.968C34.3766 47.016 34.4966 47.132 34.5846 47.316C34.6726 47.5 34.6766 47.66 34.5966 47.796C34.5166 47.924 34.4006 48.104 34.2486 48.336C34.1366 48.504 34.0526 48.628 33.9966 48.708C33.9646 48.764 33.8726 48.896 33.7206 49.104C33.4966 49.424 33.3646 49.62 33.3246 49.692L33.3966 49.74C33.3966 49.732 33.4206 49.716 33.4686 49.692C33.5086 49.676 33.5326 49.664 33.5406 49.656C33.5566 49.648 33.5806 49.636 33.6126 49.62C33.6926 49.556 33.7606 49.524 33.8166 49.524H33.8286C33.8846 49.524 33.9566 49.552 34.0446 49.608C34.3326 49.808 34.5206 50.048 34.6086 50.328C34.6086 50.344 34.6206 50.392 34.6446 50.472C34.6766 50.552 34.7166 50.644 34.7646 50.748C34.8126 50.844 34.8566 50.9 34.8966 50.916C34.9606 50.948 35.0086 50.976 35.0406 51ZM37.8579 48.84C37.8499 48.84 37.8419 48.836 37.8339 48.828C37.7859 48.82 37.7579 48.76 37.7499 48.648C37.7499 48.528 37.7619 48.444 37.7859 48.396C37.8099 48.324 37.8419 48.276 37.8819 48.252C38.0179 48.164 38.1659 48.144 38.3259 48.192C38.4939 48.232 38.6219 48.328 38.7099 48.48C38.7659 48.568 38.7979 48.66 38.8059 48.756C38.8619 49.244 38.7579 49.668 38.4939 50.028C38.3179 50.268 38.0899 50.492 37.8099 50.7C37.4819 50.94 37.2259 51.06 37.0419 51.06C36.9379 51.06 36.8499 51.04 36.7779 51C36.5379 50.888 36.3899 50.636 36.3339 50.244C36.2939 49.98 36.3139 49.648 36.3939 49.248C36.6099 48.224 36.9819 47.328 37.5099 46.56C37.5419 46.52 37.5699 46.48 37.5939 46.44C37.7779 46.184 38.0059 45.976 38.2779 45.816C38.4059 45.744 38.5299 45.74 38.6499 45.804C38.7059 45.844 38.7419 45.888 38.7579 45.936C38.8379 46.192 38.8299 46.412 38.7339 46.596C38.7179 46.628 38.6939 46.648 38.6619 46.656C38.6379 46.664 38.6059 46.66 38.5659 46.644C38.5339 46.62 38.5019 46.596 38.4699 46.572C38.4459 46.548 38.4139 46.524 38.3739 46.5C38.3419 46.468 38.3219 46.448 38.3139 46.44C38.3059 46.432 38.2979 46.428 38.2899 46.428C38.2819 46.428 38.2739 46.432 38.2659 46.44C37.8819 46.832 37.5659 47.272 37.3179 47.76C37.1259 48.12 36.9339 48.68 36.7419 49.44C36.6459 49.824 36.6579 50.12 36.7779 50.328C36.8259 50.432 36.8979 50.504 36.9939 50.544C37.0899 50.576 37.1899 50.58 37.2939 50.556C37.4459 50.516 37.6099 50.392 37.7859 50.184C37.8099 50.168 37.8619 50.112 37.9419 50.016C38.0299 49.92 38.0899 49.852 38.1219 49.812C38.1539 49.764 38.1979 49.7 38.2539 49.62C38.3179 49.532 38.3659 49.448 38.3979 49.368C38.4299 49.288 38.4539 49.204 38.4699 49.116C38.5019 48.956 38.4859 48.832 38.4219 48.744C38.3739 48.672 38.3019 48.644 38.2059 48.66C38.1499 48.676 38.0779 48.716 37.9899 48.78C37.9339 48.82 37.8899 48.84 37.8579 48.84ZM40.4822 49.164C40.9942 49.156 41.3782 49.152 41.6342 49.152C42.0982 49.144 42.5182 49.144 42.8942 49.152C42.9582 49.152 43.0142 49.188 43.0622 49.26C43.1102 49.332 43.1142 49.396 43.0742 49.452C42.9862 49.588 42.9142 49.652 42.8582 49.644C42.7302 49.604 42.5942 49.576 42.4502 49.56C42.3142 49.544 42.1862 49.536 42.0662 49.536C41.9462 49.536 41.8102 49.54 41.6582 49.548C41.5062 49.556 41.3742 49.568 41.2622 49.584C41.1582 49.592 41.0262 49.604 40.8662 49.62C40.7062 49.636 40.5742 49.648 40.4702 49.656C40.3822 49.664 40.2822 49.64 40.1702 49.584C40.1142 49.552 40.0862 49.496 40.0862 49.416C40.0862 49.328 40.1182 49.272 40.1822 49.248C40.2782 49.2 40.3782 49.172 40.4822 49.164Z" fill="#002D97"/>
</g>
<defs>
<clipPath id="clip0_362_277">
<rect width="64" height="64" rx="2" fill="white"/>
</clipPath>
</defs>
</svg>
